<svg version="1.2" xmlns="http://www.w3.org/2000/svg" viewBox="0 0 452 395" width="452" height="395"><style>.a{fill:#6d6f7c}</style><path class="a" d="m189.9 227.2l36.9 25 37.5-25c-12.7-13.1-45.2-31.5-74.4 0z"/><path fill-rule="evenodd" class="a" d="m226.8 262.3l-49.7-33.6 6.6-7.2c12.2-13.2 26.2-19.9 41.5-20.1 19-0.2 35.7 10.2 45.1 20l7 7.2zm-23.4-36.1l23.4 15.9 23.5-15.6c-6.7-4.6-15.4-8.3-24.6-8.3q-0.2 0-0.4 0c-7.7 0.1-15 2.8-21.9 8z"/><path fill-rule="evenodd" class="a" d="m226.5 337.3c-9.5 0-23.4-4.3-33.9-16.5-6.9-7.9-14.3-21.6-12.8-43.5-6.2-3.4-10.3-8-12.4-10.8l13.5-10.1c1.6 2.1 5 5.9 10.4 7.6 1.6 0.5 6.1 1.4 7.9 1.4 6.8 0.2 13.5-0.3 20.7-9.3l6.3-7.7 6.6 7.5c4.7 5.4 18.7 12.8 29.8 8.3 3.5-1.4 6.7-4 9.4-7.7l13.6 9.9c-3.3 4.4-7 8-11.2 10.6 0.5 19.7-4.3 35.1-14.3 45.9-8.6 9.1-20.8 14.4-33.6 14.4zm-30.1-55.2c-0.1 11.3 2.9 20.8 8.9 27.7 6.4 7.4 15.2 10.7 21.2 10.7 3.8 0 13.6-0.9 21.3-9.1 6-6.5 9.3-16.4 9.7-29-11.5 0.7-22.7-3.8-30.6-9.4-9.9 8.5-20 9.5-28.2 9.2q-1.1 0-2.3-0.1z"/><path class="a" d="m160.2 209.3c0 14.2-11.5 25.8-25.8 25.8-14.2 0-25.7-11.6-25.7-25.8 0-14.2 11.5-25.7 25.7-25.7 14.3 0 25.8 11.5 25.8 25.7z"/><path class="a" d="m344.6 209.3c0 14.2-11.5 25.8-25.7 25.8-14.2 0-25.7-11.6-25.7-25.8 0-14.2 11.5-25.7 25.7-25.7 14.2 0 25.7 11.5 25.7 25.7z"/><path fill-rule="evenodd" class="a" d="m231.2 382.8c-124.3 0-176.7-40.8-198.8-75.1-22.6-35-23.8-79.9-3.7-126.7-2.9-24.6-12.6-128.6 31.9-148.9 26.6-12.1 54.4 12.5 69.3 28.3 62.9-29.2 139.4-19.8 190.6 3.1 24.5-31.1 47.4-42.3 68.3-33.5 37.6 15.9 45.1 96 36.2 150.5 21.3 47.1 20.6 92.5-2.1 128.4-21.2 33.7-71.8 73.9-191.7 73.9zm-155.7-325.9q-1.9 0-3.3 0.7c-16 7.3-23.1 65.1-15.2 123.6l0.6 4-1.7 3.7c-12.6 27.7-22.8 68.2 0.1 103.7 25.8 40.1 88.1 62.2 175.2 62.2 84.8 0 142.9-21 168-60.8 18-28.5 17.5-66-1.3-105.5l-2-4.1 0.8-4.5c10.2-55.5-2-117-18.8-124.1-6.7-2.8-21.1 4.5-41.7 33.4l-7 10-10.9-5.7c-48.4-25.3-127.5-34.7-185.1-3.5l-9.8 5.3-7.3-8.4c-19.5-22.2-33.2-30-40.6-30z"/></svg>